<?xml version="1.0" encoding="UTF-8"?>
<!DOCTYPE svg
  PUBLIC '-//W3C//DTD SVG 1.1//EN'
  'http://www.w3.org/Graphics/SVG/1.1/DTD/svg11.dtd'>
<svg version="1.1" xmlns="http://www.w3.org/2000/svg" width="39.520mm" height="16.235mm">
    <!--Autogenerated with python-barcode 0.16.1-->
    <g id="barcode_group">
        <rect width="100%" height="100%" style="fill:white"/>
        <rect x="1.000mm" y="1.000mm" width="0.560mm" height="8.000mm" style="fill:black;"/>
        <rect x="1.840mm" y="1.000mm" width="0.280mm" height="8.000mm" style="fill:black;"/>
        <rect x="2.680mm" y="1.000mm" width="0.280mm" height="8.000mm" style="fill:black;"/>
        <rect x="4.080mm" y="1.000mm" width="0.280mm" height="8.000mm" style="fill:black;"/>
        <rect x="4.640mm" y="1.000mm" width="0.840mm" height="8.000mm" style="fill:black;"/>
        <rect x="6.320mm" y="1.000mm" width="0.560mm" height="8.000mm" style="fill:black;"/>
        <rect x="7.160mm" y="1.000mm" width="0.280mm" height="8.000mm" style="fill:black;"/>
        <rect x="8.280mm" y="1.000mm" width="0.280mm" height="8.000mm" style="fill:black;"/>
        <rect x="9.400mm" y="1.000mm" width="0.560mm" height="8.000mm" style="fill:black;"/>
        <rect x="10.240mm" y="1.000mm" width="0.280mm" height="8.000mm" style="fill:black;"/>
        <rect x="11.080mm" y="1.000mm" width="0.560mm" height="8.000mm" style="fill:black;"/>
        <rect x="11.920mm" y="1.000mm" width="0.840mm" height="8.000mm" style="fill:black;"/>
        <rect x="13.320mm" y="1.000mm" width="0.560mm" height="8.000mm" style="fill:black;"/>
        <rect x="15.000mm" y="1.000mm" width="0.280mm" height="8.000mm" style="fill:black;"/>
        <rect x="15.560mm" y="1.000mm" width="0.280mm" height="8.000mm" style="fill:black;"/>
        <rect x="16.400mm" y="1.000mm" width="0.280mm" height="8.000mm" style="fill:black;"/>
        <rect x="17.240mm" y="1.000mm" width="0.280mm" height="8.000mm" style="fill:black;"/>
        <rect x="17.800mm" y="1.000mm" width="0.560mm" height="8.000mm" style="fill:black;"/>
        <rect x="19.480mm" y="1.000mm" width="0.280mm" height="8.000mm" style="fill:black;"/>
        <rect x="20.040mm" y="1.000mm" width="0.280mm" height="8.000mm" style="fill:black;"/>
        <rect x="20.880mm" y="1.000mm" width="1.120mm" height="8.000mm" style="fill:black;"/>
        <rect x="22.560mm" y="1.000mm" width="0.560mm" height="8.000mm" style="fill:black;"/>
        <rect x="24.240mm" y="1.000mm" width="0.280mm" height="8.000mm" style="fill:black;"/>
        <rect x="25.080mm" y="1.000mm" width="0.280mm" height="8.000mm" style="fill:black;"/>
        <rect x="25.640mm" y="1.000mm" width="0.280mm" height="8.000mm" style="fill:black;"/>
        <rect x="27.040mm" y="1.000mm" width="0.560mm" height="8.000mm" style="fill:black;"/>
        <rect x="27.880mm" y="1.000mm" width="0.280mm" height="8.000mm" style="fill:black;"/>
        <rect x="28.720mm" y="1.000mm" width="0.560mm" height="8.000mm" style="fill:black;"/>
        <rect x="30.400mm" y="1.000mm" width="0.280mm" height="8.000mm" style="fill:black;"/>
        <rect x="30.960mm" y="1.000mm" width="0.280mm" height="8.000mm" style="fill:black;"/>
        <rect x="31.800mm" y="1.000mm" width="1.120mm" height="8.000mm" style="fill:black;"/>
        <rect x="33.200mm" y="1.000mm" width="0.280mm" height="8.000mm" style="fill:black;"/>
        <rect x="33.760mm" y="1.000mm" width="0.280mm" height="8.000mm" style="fill:black;"/>
        <rect x="34.880mm" y="1.000mm" width="0.560mm" height="8.000mm" style="fill:black;"/>
        <rect x="36.280mm" y="1.000mm" width="0.840mm" height="8.000mm" style="fill:black;"/>
        <rect x="37.400mm" y="1.000mm" width="0.280mm" height="8.000mm" style="fill:black;"/>
        <rect x="37.960mm" y="1.000mm" width="0.560mm" height="8.000mm" style="fill:black;"/>
        <text x="19.760mm" y="14.000mm" style="fill:black;font-size:7pt;text-anchor:middle;">NC-napkin</text>
    </g>
</svg>
