<?xml version="1.0" encoding="UTF-8"?>
<!DOCTYPE svg
  PUBLIC '-//W3C//DTD SVG 1.1//EN'
  'http://www.w3.org/Graphics/SVG/1.1/DTD/svg11.dtd'>
<svg version="1.1" xmlns="http://www.w3.org/2000/svg" width="64.160mm" height="16.235mm">
    <!--Autogenerated with python-barcode 0.16.1-->
    <g id="barcode_group">
        <rect width="100%" height="100%" style="fill:white"/>
        <rect x="1.000mm" y="1.000mm" width="0.560mm" height="8.000mm" style="fill:black;"/>
        <rect x="1.840mm" y="1.000mm" width="0.280mm" height="8.000mm" style="fill:black;"/>
        <rect x="2.680mm" y="1.000mm" width="0.280mm" height="8.000mm" style="fill:black;"/>
        <rect x="4.080mm" y="1.000mm" width="0.280mm" height="8.000mm" style="fill:black;"/>
        <rect x="4.640mm" y="1.000mm" width="0.840mm" height="8.000mm" style="fill:black;"/>
        <rect x="6.320mm" y="1.000mm" width="0.560mm" height="8.000mm" style="fill:black;"/>
        <rect x="7.160mm" y="1.000mm" width="0.280mm" height="8.000mm" style="fill:black;"/>
        <rect x="8.280mm" y="1.000mm" width="0.280mm" height="8.000mm" style="fill:black;"/>
        <rect x="9.400mm" y="1.000mm" width="0.560mm" height="8.000mm" style="fill:black;"/>
        <rect x="10.240mm" y="1.000mm" width="0.280mm" height="8.000mm" style="fill:black;"/>
        <rect x="11.080mm" y="1.000mm" width="0.560mm" height="8.000mm" style="fill:black;"/>
        <rect x="11.920mm" y="1.000mm" width="0.840mm" height="8.000mm" style="fill:black;"/>
        <rect x="13.320mm" y="1.000mm" width="0.280mm" height="8.000mm" style="fill:black;"/>
        <rect x="13.880mm" y="1.000mm" width="1.120mm" height="8.000mm" style="fill:black;"/>
        <rect x="15.560mm" y="1.000mm" width="0.280mm" height="8.000mm" style="fill:black;"/>
        <rect x="16.400mm" y="1.000mm" width="0.560mm" height="8.000mm" style="fill:black;"/>
        <rect x="17.520mm" y="1.000mm" width="0.280mm" height="8.000mm" style="fill:black;"/>
        <rect x="18.080mm" y="1.000mm" width="0.280mm" height="8.000mm" style="fill:black;"/>
        <rect x="19.480mm" y="1.000mm" width="0.280mm" height="8.000mm" style="fill:black;"/>
        <rect x="20.320mm" y="1.000mm" width="1.120mm" height="8.000mm" style="fill:black;"/>
        <rect x="22.000mm" y="1.000mm" width="0.280mm" height="8.000mm" style="fill:black;"/>
        <rect x="22.560mm" y="1.000mm" width="0.280mm" height="8.000mm" style="fill:black;"/>
        <rect x="23.120mm" y="1.000mm" width="1.120mm" height="8.000mm" style="fill:black;"/>
        <rect x="24.800mm" y="1.000mm" width="0.280mm" height="8.000mm" style="fill:black;"/>
        <rect x="25.640mm" y="1.000mm" width="0.280mm" height="8.000mm" style="fill:black;"/>
        <rect x="26.480mm" y="1.000mm" width="0.560mm" height="8.000mm" style="fill:black;"/>
        <rect x="28.160mm" y="1.000mm" width="0.280mm" height="8.000mm" style="fill:black;"/>
        <rect x="28.720mm" y="1.000mm" width="0.280mm" height="8.000mm" style="fill:black;"/>
        <rect x="29.560mm" y="1.000mm" width="0.560mm" height="8.000mm" style="fill:black;"/>
        <rect x="30.400mm" y="1.000mm" width="0.840mm" height="8.000mm" style="fill:black;"/>
        <rect x="31.800mm" y="1.000mm" width="0.280mm" height="8.000mm" style="fill:black;"/>
        <rect x="32.640mm" y="1.000mm" width="0.560mm" height="8.000mm" style="fill:black;"/>
        <rect x="33.480mm" y="1.000mm" width="0.280mm" height="8.000mm" style="fill:black;"/>
        <rect x="34.880mm" y="1.000mm" width="0.560mm" height="8.000mm" style="fill:black;"/>
        <rect x="36.000mm" y="1.000mm" width="0.280mm" height="8.000mm" style="fill:black;"/>
        <rect x="36.560mm" y="1.000mm" width="0.280mm" height="8.000mm" style="fill:black;"/>
        <rect x="37.960mm" y="1.000mm" width="0.280mm" height="8.000mm" style="fill:black;"/>
        <rect x="38.800mm" y="1.000mm" width="0.280mm" height="8.000mm" style="fill:black;"/>
        <rect x="39.360mm" y="1.000mm" width="0.560mm" height="8.000mm" style="fill:black;"/>
        <rect x="41.040mm" y="1.000mm" width="0.280mm" height="8.000mm" style="fill:black;"/>
        <rect x="41.600mm" y="1.000mm" width="1.120mm" height="8.000mm" style="fill:black;"/>
        <rect x="43.280mm" y="1.000mm" width="0.280mm" height="8.000mm" style="fill:black;"/>
        <rect x="44.120mm" y="1.000mm" width="0.280mm" height="8.000mm" style="fill:black;"/>
        <rect x="44.680mm" y="1.000mm" width="1.120mm" height="8.000mm" style="fill:black;"/>
        <rect x="46.360mm" y="1.000mm" width="0.280mm" height="8.000mm" style="fill:black;"/>
        <rect x="47.200mm" y="1.000mm" width="0.280mm" height="8.000mm" style="fill:black;"/>
        <rect x="48.040mm" y="1.000mm" width="0.560mm" height="8.000mm" style="fill:black;"/>
        <rect x="48.880mm" y="1.000mm" width="0.840mm" height="8.000mm" style="fill:black;"/>
        <rect x="50.280mm" y="1.000mm" width="0.280mm" height="8.000mm" style="fill:black;"/>
        <rect x="51.120mm" y="1.000mm" width="0.840mm" height="8.000mm" style="fill:black;"/>
        <rect x="52.520mm" y="1.000mm" width="0.560mm" height="8.000mm" style="fill:black;"/>
        <rect x="53.360mm" y="1.000mm" width="0.560mm" height="8.000mm" style="fill:black;"/>
        <rect x="54.480mm" y="1.000mm" width="0.840mm" height="8.000mm" style="fill:black;"/>
        <rect x="55.880mm" y="1.000mm" width="0.280mm" height="8.000mm" style="fill:black;"/>
        <rect x="56.440mm" y="1.000mm" width="0.560mm" height="8.000mm" style="fill:black;"/>
        <rect x="57.560mm" y="1.000mm" width="0.280mm" height="8.000mm" style="fill:black;"/>
        <rect x="58.960mm" y="1.000mm" width="0.280mm" height="8.000mm" style="fill:black;"/>
        <rect x="59.520mm" y="1.000mm" width="0.560mm" height="8.000mm" style="fill:black;"/>
        <rect x="60.920mm" y="1.000mm" width="0.840mm" height="8.000mm" style="fill:black;"/>
        <rect x="62.040mm" y="1.000mm" width="0.280mm" height="8.000mm" style="fill:black;"/>
        <rect x="62.600mm" y="1.000mm" width="0.560mm" height="8.000mm" style="fill:black;"/>
        <text x="32.080mm" y="14.000mm" style="fill:black;font-size:7pt;text-anchor:middle;">NC-slush-glass-12</text>
    </g>
</svg>
